<?xml version="1.0" standalone="yes"?>
<svg xmlns="http://www.w3.org/2000/svg" width="400" height="400">
<path style="fill:#2ce20f; stroke:none;" d="M0 0L0 141C20.5597 138.397 40.4817 121.97 61 122L66 120L66 118C70.1512 119.384 82.6362 113.819 83 112L95 110L112 102L135 96L141 92L153 88L158 86C163.733 86.6758 183.426 80.8185 187 76L204 72C211.085 66.2097 228.881 60.9194 238 60L238 58L242 59L242 57C246.958 58.6527 249.334 53 254 53C258.887 53 278.398 47.0075 279 44C295.215 44.3633 317.726 32.118 333 26.5363C337.952 24.7266 346.792 23.2577 350 19C360.944 20.2382 378.215 10.9191 388.715 7.19366C393.181 5.60889 398.458 4.85205 400 0L0 0z"/>
<path style="fill:#34b227; stroke:none;" d="M396 3L397 4L396 3M399 3C385.059 9.04578 365.16 17.9748 350 19L324.015 28.875L279 44C272.819 49.3928 250.124 56.9835 242 57L242 59L238 58L238 60C230.488 60.1451 208.77 66.0516 204 72L187 76C181.404 80.8948 165.355 85.6485 158 86L153 88L141 92L135 96L112 102L95 110L83 112L66 118L66 120L61 122C46.4228 121.146 30.5018 132.547 16.5764 136.198C12.8061 137.186 2.31667 138.617 0.564043 142.458C-1.6291 147.264 0 155.78 0 161L0 203L38 191C44.7031 185.266 66.1108 178.203 75 178L106.001 166.35L168.464 144.63L196 136L216 129L241 118C247.249 118.428 252.35 115.251 258.116 113.348C274.434 107.963 293.831 97.0209 311 96L316 94L316 92L347 82.8549L359 77L382 71L387 67C390.619 67.2325 397.552 66.347 399.397 62.581C401.364 58.5651 400 51.39 400 47C400 34.5323 403.807 14.4559 399 3M341 22L342 23L341 22z"/>
<path style="fill:#399237; stroke:none;" d="M387 67L382 71L359 77C351.099 84.481 326.857 90.6804 316 92L316 94L311 96C287.121 95.5695 264.784 117.543 241 118L216 129C211.906 128.681 196.58 132.332 196 136C188.029 134.839 176.988 141.295 169.299 143.915C147.139 151.468 125.117 159.371 103.039 167.076C95.7008 169.638 79.9366 172.044 75 178L47.0147 186.609L38 191L1 202C-4.33375 220.045 0 245.15 0 264L6 263C10.567 258.899 22.8729 255.285 29 255L29 253L35 253L35 251L37 252C42.6469 247.385 59.723 241.942 67 242C67 238.908 73.444 238.63 76.3333 237.667C85.5858 234.583 100.544 225.599 110 227L119 224L126 221L139 217L139 215L141 216L141 214L154 210L192 197L210 190L213 191L240 179L282 167L291 164L304 157C306.792 157.931 307.425 158.877 308 156L313 154C319.657 154.93 343.53 147.34 348 142L351 143L364.001 137.655L393 128L399.397 123.683L400 106L400 64L387 67M252 114L253 115L252 114z"/>
<path style="fill:#41634e; stroke:none;" d="M399 125L393 128L383 131L351 143L348 142C341.228 147.356 321.5 153.882 313 154L308 156L304 157L291 164L282 167L240 179L213 191L210 190L187.576 198.508L141 214L141 216L139 215L139 217C134.56 216.552 128.904 217.358 126 221L119 224L110 227C99.9782 226.024 86.6566 233.586 77.1296 236.87C74.0184 237.943 67.5289 238.637 67 242L57 245L35 251L35 253L29 253L29 255C23.5066 254.879 9.30742 258.524 6 263C-3.14865 262.673 0 277.691 0 284L0 353L1 353L11 350L10 348L11 348L55 334L55 332L88 323L108 316L108 314L134 307L148 300L151 301L154 300L159 298L159 296C162.51 296.691 164.912 295.962 167 293C170.066 294.533 171.489 294.556 172 292L189 288L206 282C209.951 277.824 217.715 277.573 223.019 275.556C239.303 269.361 255.578 263.703 272.005 257.87C277.627 255.874 289.948 254.299 293 249C304.269 250.12 316.718 241.598 327.536 238.732C332.585 237.395 338.897 236.549 342 232C347.782 233.927 370.39 225.049 371 222L372 222L373 224C378.345 220.059 389.27 215.339 396 216L400 214L400 152L399 125z"/>
<path style="fill:#399237; stroke:none;" d="M203 131L204 132L203 131z"/>
<path style="fill:#41634e; stroke:none;" d="M336 146L337 147L336 146M333 147L334 148L333 147M310 155L311 156L310 155z"/>
<path style="fill:#399237; stroke:none;" d="M91 170L92 171L91 170M83 173L84 174L83 173z"/>
<path style="fill:#4d1d70; stroke:none;" d="M396 216L372 222L371 222C364.958 227.245 350 232.133 342 232L325.83 238.829L293 249L273 257.171L224.005 274.708L206 282C202.316 281.74 189.578 284.231 189 288L172 292L167 293L159 296L159 298L154 300L151 301L148 300L134 307L108 314L108 316C104.45 315.553 87.9187 319.992 88 323L55 332L55 334L10 348L11 350L1 351L0 400L400 400L400 273C400 254.738 404.168 230.485 399 213L396 216M357 227L358 228L357 227M334 235L335 236L334 235M331 236L332 237L331 236z"/>
<path style="fill:#41634e; stroke:none;" d="M57 243L58 244L57 243z"/>
<path style="fill:#4d1d70; stroke:none;" d="M222 274L223 275L222 274z"/>
</svg>
